<svg width="24" height="24" viewBox="0 0 24 24" fill="none" xmlns="http://www.w3.org/2000/svg">
<path d="M21 2.25H3C2.17157 2.25 1.5 2.92157 1.5 3.75V4.5C1.5 5.32843 2.17157 6 3 6H21C21.8284 6 22.5 5.32843 22.5 4.5V3.75C22.5 2.92157 21.8284 2.25 21 2.25Z" fill="#FF6B35"/>
<path d="M3.48985 7.5C3.43715 7.49972 3.38498 7.51054 3.33675 7.53177C3.28852 7.553 3.2453 7.58416 3.20992 7.62321C3.17454 7.66227 3.14778 7.70834 3.1314 7.75843C3.11502 7.80852 3.10938 7.86149 3.11485 7.91391L4.34813 19.7527C4.34788 19.7561 4.34788 19.7595 4.34813 19.763C4.41257 20.3105 4.67582 20.8154 5.08791 21.1817C5.5 21.548 6.03224 21.7502 6.5836 21.75H17.4159C17.9671 21.75 18.4991 21.5477 18.911 21.1814C19.3229 20.8151 19.5861 20.3104 19.6505 19.763V19.7531L20.8819 7.91391C20.8873 7.86149 20.8817 7.80852 20.8653 7.75843C20.8489 7.70834 20.8222 7.66227 20.7868 7.62321C20.7514 7.58416 20.7082 7.553 20.66 7.53177C20.6117 7.51054 20.5596 7.49972 20.5069 7.5H3.48985ZM15.1552 15.9698C15.2265 16.0391 15.2833 16.1219 15.3223 16.2133C15.3613 16.3047 15.3818 16.403 15.3825 16.5024C15.3832 16.6019 15.3641 16.7004 15.3264 16.7924C15.2887 16.8844 15.233 16.9679 15.1627 17.0382C15.0924 17.1085 15.0088 17.1641 14.9168 17.2018C14.8249 17.2395 14.7263 17.2585 14.6269 17.2577C14.5275 17.257 14.4292 17.2365 14.3378 17.1974C14.2464 17.1583 14.1636 17.1015 14.0944 17.0302L12 14.9358L9.90516 17.0302C9.76386 17.1674 9.57421 17.2436 9.3772 17.2422C9.18019 17.2408 8.99165 17.162 8.8523 17.0227C8.71296 16.8834 8.63402 16.6949 8.63254 16.4979C8.63106 16.3009 8.70715 16.1112 8.84438 15.9698L10.9392 13.875L8.84438 11.7802C8.70715 11.6388 8.63106 11.4491 8.63254 11.2521C8.63402 11.0551 8.71296 10.8666 8.8523 10.7273C8.99165 10.588 9.18019 10.5092 9.3772 10.5078C9.57421 10.5064 9.76386 10.5826 9.90516 10.7198L12 12.8142L14.0944 10.7198C14.2357 10.5826 14.4253 10.5064 14.6223 10.5078C14.8193 10.5092 15.0079 10.588 15.1472 10.7273C15.2866 10.8666 15.3655 11.0551 15.367 11.2521C15.3685 11.4491 15.2924 11.6388 15.1552 11.7802L13.0603 13.875L15.1552 15.9698Z" fill="#FF6B35"/>
</svg>
